HIERARCHY
ROOT RootJoint
{
    OFFSET   0.000000   0.000000   0.000000
    CHANNELS 6 Xposition Yposition Zposition Xrotation Yrotation Zrotation
    JOINT pelvis_lowerback
    {
        OFFSET   0.000000   0.093605   0.000000
        CHANNELS 3 Xrotation Yrotation Zrotation
        JOINT lowerback_torso
        {
            OFFSET   0.000000   0.100000   0.000000
            CHANNELS 3 Xrotation Yrotation Zrotation
            JOINT torso_head
            {
                OFFSET   0.000000   0.282350   0.000000
                CHANNELS 3 Xrotation Yrotation Zrotation
                End Site
                {
                    OFFSET   0.000000   0.192650   0.000000
                }
            }
            JOINT rTorso_Clavicle
            {
                OFFSET  -0.001000   0.157500   0.000000
                CHANNELS 3 Xrotation Yrotation Zrotation
                JOINT rShoulder
                {
                    OFFSET  -0.117647   0.000000   0.000000
                    CHANNELS 3 Xrotation Yrotation Zrotation
                    JOINT rElbow
                    {
                        OFFSET  -0.245000   0.000000   0.000000
                        CHANNELS 3 Xrotation Yrotation Zrotation
                        JOINT rWrist
                        {
                            OFFSET  -0.240000   0.000000   0.000000
                            CHANNELS 3 Xrotation Yrotation Zrotation
                            End Site
                            {
                                OFFSET  -0.116353  -0.002500   0.000000
                            }
                        }
                    }
                }
            }
            JOINT lTorso_Clavicle
            {
                OFFSET   0.001000   0.157500   0.000000
                CHANNELS 3 Xrotation Yrotation Zrotation
                JOINT lShoulder
                {
                    OFFSET   0.117647   0.000000   0.000000
                    CHANNELS 3 Xrotation Yrotation Zrotation
                    JOINT lElbow
                    {
                        OFFSET   0.245000   0.000000   0.000000
                        CHANNELS 3 Xrotation Yrotation Zrotation
                        JOINT lWrist
                        {
                            OFFSET   0.240000   0.000000   0.000000
                            CHANNELS 3 Xrotation Yrotation Zrotation
                            End Site
                            {
                                OFFSET   0.116353  -0.002500   0.000000
                            }
                        }
                    }
                }
            }
        }
    }
    JOINT rHip
    {
        OFFSET  -0.100000  -0.051395   0.000000
        CHANNELS 3 Xrotation Yrotation Zrotation
        JOINT rKnee
        {
            OFFSET   0.000000  -0.410000   0.000000
            CHANNELS 3 Xrotation Yrotation Zrotation
            JOINT rAnkle
            {
                OFFSET   0.000000  -0.390000   0.000000
                CHANNELS 3 Xrotation Yrotation Zrotation
                JOINT rToeJoint
                {
                    OFFSET   0.000000  -0.050000   0.130000
                    CHANNELS 3 Xrotation Yrotation Zrotation
                    End Site
                    {
                        OFFSET  -0.010000   0.002000   0.060000
                    }
                }
            }
        }
    }
    JOINT lHip
    {
        OFFSET   0.100000  -0.051395   0.000000
        CHANNELS 3 Xrotation Yrotation Zrotation
        JOINT lKnee
        {
            OFFSET   0.000000  -0.410000   0.000000
            CHANNELS 3 Xrotation Yrotation Zrotation
            JOINT lAnkle
            {
                OFFSET   0.000000  -0.390000   0.000000
                CHANNELS 3 Xrotation Yrotation Zrotation
                JOINT lToeJoint
                {
                    OFFSET   0.000000  -0.050000   0.130000
                    CHANNELS 3 Xrotation Yrotation Zrotation
                    End Site
                    {
                        OFFSET   0.010000   0.002000   0.060000
                    }
                }
            }
        }
    }
}
MOTION
Frames: 17
Frame Time:   0.008333
 -2.035486   0.906733   3.958226  -7.624961 -21.168744  -2.130908   4.295478  -0.512894   1.122174  -0.302039   0.564311   2.629403   0.071017   2.641473   2.985754  -3.062236   9.869997  -8.888964 -14.233699  27.005782  25.871941 -179.999389  81.918703 179.999406  -7.282145   8.809189   2.099827  -1.859652  -5.315637   7.196814 -22.110162   0.460440 -23.607499   0.014026 -87.717884   0.013850  -8.898651 -10.518827   5.648575  -5.607192   3.900805 -12.225176  30.077742  -0.009148   0.002476 -11.347887  -3.719347   1.332703  -1.034876  -0.001859   0.000356  -0.447996  -0.656549   7.200024  15.518269  -0.004108   0.000743  -8.631781  -0.462991  -1.452337   0.675481  -0.000261  -0.000059
 -2.033154   0.907651   3.959704  -7.654734 -21.109588  -2.250553   4.307222  -0.605517   1.140512  -0.231621   0.533270   2.666670   0.149197   2.685881   3.026356  -3.034594   9.860551  -8.834247 -14.272226  26.957077  25.867182 -179.999505  81.849917 179.999526  -7.279441   8.818065   2.139598  -1.904301  -5.386260   7.288966 -22.061286   0.480269 -23.615594   0.012992 -87.796476   0.012830  -8.840651 -10.496139   5.557566  -5.711849   3.965120 -11.330213  30.177267  -0.007857   0.002417 -11.684872  -3.276780   1.742096  -0.939908  -0.002443   0.000936  -0.175736  -0.687652   7.133388  15.086549  -0.003936   0.000752  -8.403627  -0.442270  -1.475089   0.626763  -0.000294  -0.000045
 -2.031005   0.908432   3.961129  -7.681761 -21.041922  -2.376961   4.315347  -0.698411   1.157540  -0.168351   0.497072   2.701471   0.227349   2.727792   3.061909  -3.011398   9.839863  -8.792412 -14.306123  26.904295  25.856363 -179.999634  81.784583 179.999639  -7.278056   8.832523   2.177162  -1.951946  -5.449346   7.390302 -22.021137   0.499245 -23.614607   0.011665 -87.869686   0.011524  -8.784863 -10.474384   5.491840  -5.812412   4.022023 -10.406960  30.245591  -0.006664   0.002242 -12.005215  -2.859317   2.128789  -0.862166  -0.002732   0.001276   0.065509  -0.708857   7.088693  14.680063  -0.003733   0.000659  -8.011213  -0.405528  -1.440133  -0.360020  -0.001368  -0.000398
 -2.028962   0.909214   3.962476  -7.698690 -20.978105  -2.458126   4.318675  -0.787144   1.141364  -0.113137   0.460810   2.717165   0.300066   2.766922   3.093015  -2.988744   9.815597  -8.749580 -14.336050  26.852185  25.846475 -179.999765  81.723513 179.999755  -7.275992   8.845747   2.214464  -1.998341  -5.505700   7.483660 -21.985310   0.518706 -23.611435   0.010315 -87.937359   0.010185  -8.730439 -10.456443   5.442088  -5.923882   4.073404  -9.521962  30.299071  -0.005631   0.002031 -12.306669  -2.471179   2.492161  -0.789078  -0.002904   0.001492   0.310878  -0.741550   7.009790  14.278558  -0.003526   0.000633  -7.836502  -0.388637  -1.462755  -0.212094  -0.000864  -0.000312
 -2.026999   0.909933   3.963748  -7.709269 -20.909563  -2.518146   4.321198  -0.874325   1.120694  -0.064141   0.423143   2.721590   0.367988   2.803368   3.119516  -2.970203   9.790004  -8.715065 -14.364400  26.801327  25.833534 -179.999873  81.667113 179.999847  -7.274006   8.855399   2.246691  -2.041984  -5.558382   7.571309 -21.952276   0.537243 -23.608566   0.009106 -88.000254   0.008986  -8.678627 -10.437815   5.400914  -6.041089   4.115899  -8.661493  30.344488  -0.004759   0.001823 -12.590472  -2.110476   2.833437  -0.722614  -0.002959   0.001604   0.543779  -0.775715   6.918274  13.880203  -0.003340   0.000588  -7.654582  -0.378032  -1.477600  -0.099216  -0.000529  -0.000247
 -2.025103   0.910581   3.964960  -7.718312 -20.839508  -2.559568   4.324425  -0.957762   1.096448  -0.018919   0.385728   2.719066   0.431718   2.837392   3.143138  -2.955399   9.764584  -8.686670 -14.391767  26.752628  25.818600 -179.999947  81.614837 179.999909  -7.271876   8.862491   2.273636  -2.082487  -5.608027   7.652445 -21.921347   0.554582 -23.606434   0.008050 -88.058794   0.007941  -8.629149 -10.418725   5.362810  -6.158321   4.151036  -7.832965  30.384285  -0.004026   0.001628 -12.857439  -1.775197   3.153803  -0.661944  -0.002928   0.001639   0.762657  -0.810287   6.814044  13.500238  -0.003154   0.000533  -7.474858  -0.372064  -1.489641  -0.015038  -0.000307  -0.000197
 -2.023266   0.911159   3.966120  -7.727701 -20.770291  -2.584406   4.328085  -1.036437   1.070259   0.023518   0.349786   2.712000   0.491508   2.869178   3.164589  -2.943191   9.740111  -8.662351 -14.417990  26.706572  25.802964 -179.999989  81.566208 179.999942  -7.269661   8.868306   2.296789  -2.119675  -5.654589   7.726584 -21.891964   0.570967 -23.605438   0.007131 -88.113322   0.007034  -8.581856 -10.399484   5.325353  -6.272593   4.179951  -7.040797  30.419562  -0.003411   0.001447 -13.108404  -1.463553   3.454393  -0.606356  -0.002838   0.001620   0.968385  -0.844152   6.697784  13.142526  -0.002965   0.000474  -7.300896  -0.369415  -1.500852   0.045976  -0.000164  -0.000157
 -2.021578   0.911695   3.967271  -7.755677 -20.718172  -2.617253   4.332509  -1.103589   1.051953   0.071146   0.330235   2.691436   0.574563   2.888442   3.146738  -2.946283   9.718322  -8.637405 -14.461943  26.620660  25.801482 -179.999816  81.474841 179.999737  -7.257298   8.845772   2.354265  -2.205400  -5.719641   7.803564 -21.852893   0.610593 -23.606165   0.005690 -88.119688   0.005612  -8.515824 -10.395889   5.240860  -6.294743   4.302387  -6.248865  30.300467  -0.002128   0.000596 -13.319385  -0.990840   3.742516  -0.514790  -0.003060   0.002001   1.202362  -0.905696   6.592246  12.783399  -0.002755   0.000561  -7.121348  -0.323054  -1.563920   0.078583  -0.000077  -0.000126
 -2.019988   0.912168   3.968364  -7.776193 -20.676197  -2.635189   4.329657  -1.165366   1.024572   0.109286   0.313344   2.663178   0.654668   2.906476   3.125773  -2.954600   9.694265  -8.616437 -14.506629  26.538316  25.797994 -179.999670  81.386367 179.999553  -7.245806   8.842595   2.394075  -2.289367  -5.776970   7.881074 -21.819650   0.650730 -23.601657   0.004539 -88.121616   0.004476  -8.453536 -10.373904   5.179432  -6.312512   4.421689  -5.491349  30.166992  -0.001043  -0.000124 -13.519349  -0.547731   4.013601  -0.427685  -0.003169   0.002235   1.418067  -0.961300   6.481157  12.444760  -0.002546   0.000621  -6.950535  -0.275872  -1.623687   0.097924  -0.000031  -0.000101
 -2.018482   0.912587   3.969400  -7.792699 -20.641896  -2.641257   4.322462  -1.222605   0.991863   0.139879   0.298261   2.630150   0.729679   2.923272   3.104788  -2.965339   9.670415  -8.599572 -14.549985  26.460548  25.792528 -179.999562  81.303318 179.999409  -7.234803   8.845457   2.423757  -2.369073  -5.828089   7.955009 -21.789674   0.689828 -23.595421   0.003622 -88.122595   0.003572  -8.394164 -10.347198   5.131515  -6.328301   4.530688  -4.771705  30.038706  -0.000214  -0.000641 -13.708156  -0.134882   4.268098  -0.347761  -0.003168   0.002330   1.618363  -1.011095   6.365676  12.126449  -0.002344   0.000653  -6.788485  -0.229935  -1.680210   0.106929  -0.000011  -0.000081
 -2.017052   0.912958   3.970380  -7.806450 -20.613841  -2.638153   4.311735  -1.275752   0.956931   0.164638   0.284647   2.594653   0.799554   2.938895   3.084488  -2.977227   9.647472  -8.585719 -14.591440  26.387482  25.785881 -179.999479  81.225685 179.999299  -7.224164   8.850003   2.447745  -2.443778  -5.874338   8.023663 -21.761843   0.727430 -23.589210   0.002891 -88.123223   0.002850  -8.337337 -10.320014   5.090404  -6.341218   4.630000  -4.090685  29.918938   0.000390  -0.000985 -13.886164   0.249709   4.506916  -0.274410  -0.003088   0.002327   1.804722  -1.055870   6.247648  11.827490  -0.002150   0.000664  -6.634825  -0.185632  -1.733704   0.107960  -0.000007  -0.000065
 -2.015693   0.913288   3.971303  -7.817849 -20.591188  -2.627970   4.298154  -1.325133   0.921794   0.184685   0.272298   2.558461   0.864489   2.953431   3.065186  -2.989529   9.625673  -8.573936 -14.630777  26.319021  25.778691 -179.999416  81.153153 179.999218  -7.213883   8.855223   2.468090  -2.513391  -5.916518   8.086678 -21.735648   0.763366 -23.583678   0.002307 -88.123677   0.002275  -8.282905 -10.293414   5.052902  -6.350808   4.720792  -3.448383  29.808059   0.000812  -0.001195 -14.053857   0.607978   4.730935  -0.207102  -0.002952   0.002256   1.977917  -1.096170   6.128685  11.546680  -0.001966   0.000659  -6.489304  -0.143014  -1.782585   0.103325  -0.000012  -0.000052
 -2.014401   0.913582   3.972166  -7.827066 -20.573472  -2.612476   4.282391  -1.370991   0.887937   0.200876   0.261100   2.522896   0.924771   2.966960   3.047018  -3.001816   9.605095  -8.563625 -14.667931  26.254965  25.771347 -179.999368  81.085396 179.999160  -7.203973   8.860862   2.485867  -2.578114  -5.955140   8.144311 -21.710869   0.797578 -23.578976   0.001842 -88.124036   0.001816  -8.230763 -10.267668   5.017599  -6.356958   4.804142  -2.844570  29.705792   0.001091  -0.001307 -14.211737   0.941739   4.940997  -0.145378  -0.002780   0.002141   2.138526  -1.132460   6.010490  11.282765  -0.001793   0.000643  -6.350999  -0.101913  -1.828582   0.094232  -0.000021  -0.000041
 -2.013076   0.913760   3.973064  -7.847243 -20.534946  -2.549319   4.274598  -1.414594   0.852264   0.205709   0.246023   2.448054   0.980143   2.950625   2.986013  -3.032821   9.585237  -8.574196 -14.750301  26.159069  25.844799 -179.998707  80.959611 179.998482  -7.174014   8.812170   2.505979  -2.665146  -5.986381   8.202333 -21.687242   0.807497 -23.601857   0.002129 -88.090234   0.002112  -8.158532 -10.243351   4.952650  -6.251206   4.906741  -2.357359  29.404372   0.002003  -0.002088 -14.245249   1.287755   4.970370  -0.056526  -0.002636   0.002220   2.287574  -1.200673   5.836001  11.061561  -0.001626   0.000626  -6.228993  -0.054056  -1.886185   0.076136  -0.000043  -0.000033
 -2.011770   0.913873   3.973919  -7.861273 -20.506699  -2.462679   4.259549  -1.447791   0.810953   0.202534   0.236440   2.367233   1.031215   2.934713   2.924833  -3.065776   9.569643  -8.581526 -14.832586  26.072426  25.916334 -179.998143  80.836473 179.997910  -7.146433   8.795102   2.504166  -2.746661  -6.015383   8.253006 -21.665248   0.817600 -23.624871   0.002371 -88.057251   0.002359  -8.089534 -10.211209   4.893581  -6.131934   5.013135  -1.937727  29.093737   0.002680  -0.002653 -14.276335   1.610194   4.996943   0.036441  -0.002504   0.002269   2.413919  -1.260669   5.641600  10.868423  -0.001467   0.000596  -6.117811  -0.007968  -1.949741   0.052923  -0.000068  -0.000026
 -2.010512   0.913952   3.974713  -7.871959 -20.486501  -2.369302   4.240625  -1.474014   0.771468   0.195293   0.232115   2.289407   1.077943   2.919861   2.867528  -3.097645   9.558021  -8.587105 -14.911188  25.993563  25.984094 -179.997731  80.720189 179.997502  -7.120461   8.791773   2.496086  -2.822140  -6.040954   8.296829 -21.643879   0.828484 -23.647758   0.002508 -88.026260   0.002497  -8.023506 -10.178561   4.838435  -6.008405   5.115763  -1.561800  28.800491   0.003098  -0.002967 -14.305606   1.910849   5.021574   0.122889  -0.002343   0.002238   2.525241  -1.313853   5.445647  10.693614  -0.001317   0.000560  -6.014025   0.036770  -2.013476   0.027382  -0.000090  -0.000020
 -2.009314   0.914011   3.975436  -7.879622 -20.471947  -2.275675   4.219186  -1.495101   0.736517   0.185675   0.231650   2.217450   1.120832   2.905985   2.814465  -3.127598   9.549067  -8.591385 -14.985212  25.921149  26.048011 -179.997459  80.611122 179.997244  -7.095771   8.793986   2.486805  -2.892054  -6.063165   8.335527 -21.623158   0.839950 -23.669959   0.002548 -87.997232   0.002537  -7.960254 -10.146713   4.785940  -5.883633   5.213060  -1.219403  28.528549   0.003310  -0.003089 -14.333067   2.191297   5.044511   0.202548  -0.002166   0.002149   2.624186  -1.361835   5.255726  10.531909  -0.001179   0.000522  -5.915354   0.079972  -2.074656   0.001084  -0.000108  -0.000016
